<svg width="16" height="17" viewBox="0 0 16 17" fill="none" xmlns="http://www.w3.org/2000/svg">
<path d="M7.87853 4.20708C5.64259 4.20708 3.83907 6.0106 3.83907 8.24653C3.83907 10.4825 5.64259 12.286 7.87853 12.286C10.1145 12.286 11.918 10.4825 11.918 8.24653C11.918 6.0106 10.1145 4.20708 7.87853 4.20708ZM7.87853 10.8727C6.43361 10.8727 5.25236 9.69497 5.25236 8.24653C5.25236 6.7981 6.43009 5.62036 7.87853 5.62036C9.32697 5.62036 10.5047 6.7981 10.5047 8.24653C10.5047 9.69497 9.32345 10.8727 7.87853 10.8727ZM13.0254 4.04185C13.0254 4.56567 12.6035 4.98403 12.0832 4.98403C11.5594 4.98403 11.141 4.56216 11.141 4.04185C11.141 3.52153 11.5629 3.09966 12.0832 3.09966C12.6035 3.09966 13.0254 3.52153 13.0254 4.04185ZM15.7008 4.9981C15.641 3.73599 15.3527 2.61802 14.4281 1.69692C13.507 0.77583 12.3891 0.487549 11.127 0.424268C9.82618 0.350439 5.92736 0.350439 4.62657 0.424268C3.36798 0.484033 2.25001 0.772314 1.3254 1.69341C0.400794 2.6145 0.116028 3.73247 0.0527466 4.99458C-0.0210815 6.29536 -0.0210815 10.1942 0.0527466 11.495C0.112512 12.7571 0.400794 13.875 1.3254 14.7961C2.25001 15.7172 3.36447 16.0055 4.62657 16.0688C5.92736 16.1426 9.82618 16.1426 11.127 16.0688C12.3891 16.009 13.507 15.7208 14.4281 14.7961C15.3492 13.875 15.6375 12.7571 15.7008 11.495C15.7746 10.1942 15.7746 6.29888 15.7008 4.9981ZM14.0203 12.8907C13.7461 13.5797 13.2152 14.1106 12.5227 14.3883C11.4856 14.7997 9.02462 14.7047 7.87853 14.7047C6.73243 14.7047 4.26798 14.7961 3.23439 14.3883C2.54532 14.1141 2.01447 13.5833 1.73673 12.8907C1.3254 11.8536 1.42032 9.39263 1.42032 8.24653C1.42032 7.10044 1.32892 4.63599 1.73673 3.60239C2.01095 2.91333 2.54181 2.38247 3.23439 2.10474C4.2715 1.69341 6.73243 1.78833 7.87853 1.78833C9.02462 1.78833 11.4891 1.69692 12.5227 2.10474C13.2117 2.37895 13.7426 2.90981 14.0203 3.60239C14.4317 4.6395 14.3367 7.10044 14.3367 8.24653C14.3367 9.39263 14.4317 11.8571 14.0203 12.8907Z" fill="#9CA3AF"/>
</svg>
