<svg width="17" height="17" viewBox="0 0 17 17" fill="none" xmlns="http://www.w3.org/2000/svg">
<path d="M15.375 0.375H1.87148C1.25273 0.375 0.75 0.884766 0.75 1.51055V14.9895C0.75 15.6152 1.25273 16.125 1.87148 16.125H15.375C15.9937 16.125 16.5 15.6152 16.5 14.9895V1.51055C16.5 0.884766 15.9937 0.375 15.375 0.375ZM5.51016 13.875H3.17578V6.35859H5.51367V13.875H5.51016ZM4.34297 5.33203C3.59414 5.33203 2.98945 4.72383 2.98945 3.97852C2.98945 3.2332 3.59414 2.625 4.34297 2.625C5.08828 2.625 5.69648 3.2332 5.69648 3.97852C5.69648 4.72734 5.0918 5.33203 4.34297 5.33203ZM14.2605 13.875H11.9262V10.2188C11.9262 9.34688 11.9086 8.22539 10.7133 8.22539C9.49687 8.22539 9.31055 9.17461 9.31055 10.1555V13.875H6.97617V6.35859H9.21562V7.38516H9.24727C9.56016 6.79453 10.323 6.17227 11.4586 6.17227C13.8211 6.17227 14.2605 7.72969 14.2605 9.75469V13.875Z" fill="#9CA3AF"/>
</svg>
